<?xml version="1.0" encoding="utf-8"?>
<!-- Generator: Adobe Illustrator 25.4.1, SVG Export Plug-In . SVG Version: 6.00 Build 0)  -->
<svg version="1.1" id="Capa_1" xmlns="http://www.w3.org/2000/svg" xmlns:xlink="http://www.w3.org/1999/xlink" x="0px" y="0px"
	 viewBox="0 0 1846.35 574.58" style="enable-background:new 0 0 1846.35 574.58;" xml:space="preserve">
<style type="text/css">
	.st0{fill:url(#SVGID_1_);}
	.st1{fill:url(#SVGID_00000031891502628517844340000009139645878396112566_);}
	.st2{fill:url(#SVGID_00000176725772969362678860000017071839380395136407_);}
	.st3{fill:url(#SVGID_00000071557597500690318600000002591902711493928832_);}
	.st4{fill:url(#SVGID_00000021111241656347280230000015534415377598204078_);}
	.st5{fill:url(#SVGID_00000114042511500206589190000002660904819710963848_);}
	.st6{fill:url(#SVGID_00000135687329089850985290000017228075929236184733_);}
	.st7{fill:url(#SVGID_00000021077255509682629660000000348571517482218629_);}
	.st8{fill:url(#SVGID_00000013907716385200743280000003669723852915822989_);}
	.st9{fill:url(#SVGID_00000085944852136366109980000011713464207214330812_);}
	.st10{fill:url(#SVGID_00000015341049525870259680000009760761964419414400_);}
	.st11{fill:#232526;}
	.st12{fill:url(#SVGID_00000136409425891339034750000013009824958587986059_);}
	.st13{fill:url(#SVGID_00000170246879165322350890000014063045160934599051_);}
	.st14{fill:url(#SVGID_00000151502437723932311820000010672207926980362145_);}
	.st15{fill:url(#SVGID_00000013902438744806290600000012513539013764669096_);}
	.st16{fill:url(#SVGID_00000072264162763771053780000004148072001803844999_);}
	.st17{fill:url(#SVGID_00000134940006503858807170000007235248274831462810_);}
	.st18{fill:#F4DE8A;}
	.st19{fill:url(#SVGID_00000120544523858676917160000018419948584772241561_);}
	.st20{opacity:0.31;}
	.st21{fill:url(#SVGID_00000060750116287706431600000017212702499820248961_);}
	.st22{fill:url(#SVGID_00000116925362926840504000000007355355265167678348_);}
	.st23{fill:url(#SVGID_00000054262629888500345420000003523226849185831100_);}
	.st24{fill:url(#SVGID_00000050650238945347459920000015055166281426054303_);}
	.st25{fill:url(#SVGID_00000147937710181297040360000016298594088909477024_);}
	.st26{fill:url(#SVGID_00000146481919058073961710000000827538059445500606_);}
	.st27{opacity:0.8;}
	.st28{clip-path:url(#SVGID_00000057121413307608241730000009251851199019632828_);}
	.st29{opacity:0.23;}
	.st30{fill:#FFFFFF;}
	.st31{font-family:'RedRose-Regular';}
	.st32{font-size:34.3136px;}
	.st33{letter-spacing:4;}
	.st34{font-family:'RedRose-Bold';}
	.st35{font-size:60.9553px;}
	.st36{letter-spacing:-2;}
	.st37{fill:url(#SVGID_00000114787279575054964570000011638768265169722506_);}
	.st38{fill:url(#SVGID_00000129167121842611222340000007075699792342701706_);}
	.st39{fill:url(#SVGID_00000088851448507938668330000006000666368446580628_);}
	.st40{fill:url(#SVGID_00000054984650949399871760000007837792246136317835_);}
	.st41{opacity:0.8;clip-path:url(#SVGID_00000057121413307608241730000009251851199019632828_);}
	.st42{clip-path:url(#SVGID_00000007428613686121529190000012191144678875079553_);}
	.st43{font-size:49.3203px;}
	.st44{letter-spacing:-1;}
	.st45{font-size:27.7639px;}
	.st46{letter-spacing:3;}
	.st47{font-size:65.9832px;}
	.st48{font-size:37.1439px;}
	.st49{fill:url(#SVGID_00000005988538782437167950000007185458548591778440_);}
	.st50{fill:url(#SVGID_00000087370257608234718400000003754965945461235103_);}
	.st51{fill:url(#SVGID_00000112630338459879399260000011477846508317508238_);}
	.st52{fill:url(#SVGID_00000111913013022274846380000000130273846300136346_);}
	.st53{fill:url(#SVGID_00000078045373450070202490000018164465637369974712_);}
	.st54{fill:url(#SVGID_00000075147408303648539480000004470534599795004601_);}
	.st55{fill:url(#SVGID_00000149341882812534507670000011050163046232611763_);}
	.st56{fill:url(#SVGID_00000150821150267627606320000013910477731457127059_);}
	.st57{fill:url(#SVGID_00000065773115978361348820000016255909524685087127_);}
	.st58{fill:url(#SVGID_00000103238595918141828780000009200698832883591556_);}
	.st59{fill:url(#SVGID_00000090994360161477834620000003490464765439969694_);}
	.st60{fill:url(#SVGID_00000055680176880285039870000010892789750504302222_);}
	.st61{fill:url(#SVGID_00000145021239138986384830000001790358896016826791_);}
	.st62{fill:url(#SVGID_00000113336926249384406640000001741593944844237976_);}
	.st63{fill:url(#SVGID_00000088822098758378736410000011059232005883858622_);}
	.st64{fill:url(#SVGID_00000018223269677516008520000003818547467346855061_);}
	.st65{fill:url(#SVGID_00000000902944662349873970000002394338030820177343_);}
	.st66{fill:url(#SVGID_00000155845886669990007180000015796756677755963014_);}
	.st67{fill:url(#SVGID_00000066477284216364545290000016656813501894165169_);}
	.st68{fill:url(#SVGID_00000038391362163333055280000006201280599871722921_);}
	.st69{fill:url(#SVGID_00000134238042342661095850000002592304028555783296_);}
	.st70{fill:url(#SVGID_00000043439386635745616550000002385705903097575103_);}
	.st71{fill:url(#SVGID_00000136382135021471821090000008813593767232705434_);}
	.st72{fill:url(#SVGID_00000016794440531148973100000006971131348777976486_);}
	.st73{opacity:0.23;clip-path:url(#SVGID_00000007428613686121529190000012191144678875079553_);}
</style>
<g>
	<defs>
		<rect id="SVGID_00000116928160714911756220000000315997569113252531_" x="-2094.35" width="1846.35" height="574.58"/>
	</defs>
	<clipPath id="SVGID_00000137130134010400683140000012838162869014596538_">
		<use xlink:href="#SVGID_00000116928160714911756220000000315997569113252531_"  style="overflow:visible;"/>
	</clipPath>
	<g style="clip-path:url(#SVGID_00000137130134010400683140000012838162869014596538_);">
		<g class="st29">
			<g>
				<g>
					<text transform="matrix(1 0 0 1 -218.3203 4.0664)" class="st30 st31 st32 st33">SAFETY TRIP</text>
				</g>
				<g>
					<text transform="matrix(1 0 0 1 -555.417 144.1367)" class="st30 st34 st35 st36">EXPLORE HEAVEN</text>
				</g>
			</g>
			<g>
				<g>
					<text transform="matrix(1 0 0 1 -358.3916 340.1241)" class="st30 st34 st35 st36">EXPLORE HEAVEN</text>
					<text transform="matrix(1 0 0 1 -218.3203 387.3156)" class="st30 st31 st32 st33">SAFETY TRIP</text>
				</g>
				<g>
					<text transform="matrix(1 0 0 1 -555.417 527.3859)" class="st30 st34 st35 st36">EXPLORE HEAVEN</text>
				</g>
			</g>
		</g>
	</g>
</g>
<g>
	<defs>
		<rect id="SVGID_00000065055662697697067800000014248521154647529365_" width="1846.35" height="574.58"/>
	</defs>
	<clipPath id="SVGID_00000172440551188895910040000007010179035476873915_">
		<use xlink:href="#SVGID_00000065055662697697067800000014248521154647529365_"  style="overflow:visible;"/>
	</clipPath>
	<g style="clip-path:url(#SVGID_00000172440551188895910040000007010179035476873915_);">
		<rect y="0" width="1846.35" height="574.58"/>
		<g class="st29">
			<g>
				<g>
					<text transform="matrix(0.9599 -0.2804 0.2804 0.9599 -415.4415 102.2947)" class="st30 st34 st43 st44">EXPLORE HEAVEN</text>
				</g>
				<g>
					<text transform="matrix(0.9599 -0.2804 0.2804 0.9599 -20.4114 144.7461)" class="st30 st34 st43 st44">EXPLORE HEAVEN</text>
					<text transform="matrix(0.9599 -0.2804 0.2804 0.9599 99.0837 149.6179)" class="st30 st31 st45 st46">SAFETY TRIP</text>
				</g>
				<g>
					<text transform="matrix(0.9599 -0.2804 0.2804 0.9599 485.1535 -2.943)" class="st30 st34 st43 st44">EXPLORE HEAVEN</text>
					<text transform="matrix(0.9599 -0.2804 0.2804 0.9599 604.6486 1.9288)" class="st30 st31 st45 st46">SAFETY TRIP</text>
				</g>
			</g>
			<g>
				<g>
					<text transform="matrix(0.9599 -0.2804 0.2804 0.9599 -328.4886 399.9493)" class="st30 st34 st43 st44">EXPLORE HEAVEN</text>
					<text transform="matrix(0.9599 -0.2804 0.2804 0.9599 -208.9935 404.8211)" class="st30 st31 st45 st46">SAFETY TRIP</text>
				</g>
				<g>
					<text transform="matrix(0.9599 -0.2804 0.2804 0.9599 177.0773 252.2599)" class="st30 st34 st43 st44">EXPLORE HEAVEN</text>
					<text transform="matrix(0.9599 -0.2804 0.2804 0.9599 296.5723 257.1317)" class="st30 st31 st45 st46">SAFETY TRIP</text>
				</g>
				<g>
					<text transform="matrix(0.9599 -0.2804 0.2804 0.9599 682.6422 104.5707)" class="st30 st34 st43 st44">EXPLORE HEAVEN</text>
					<text transform="matrix(0.9599 -0.2804 0.2804 0.9599 802.1372 109.4425)" class="st30 st31 st45 st46">SAFETY TRIP</text>
				</g>
				<g>
					<text transform="matrix(0.9599 -0.2804 0.2804 0.9599 -439.0233 590.0898)" class="st30 st34 st43 st44">EXPLORE HEAVEN</text>
				</g>
				<g>
					<text transform="matrix(0.9599 -0.2804 0.2804 0.9599 66.5416 442.4007)" class="st30 st34 st43 st44">EXPLORE HEAVEN</text>
					<text transform="matrix(0.9599 -0.2804 0.2804 0.9599 186.0366 447.2725)" class="st30 st31 st45 st46">SAFETY TRIP</text>
				</g>
				<g>
					<text transform="matrix(0.9599 -0.2804 0.2804 0.9599 572.1064 294.7115)" class="st30 st34 st43 st44">EXPLORE HEAVEN</text>
					<text transform="matrix(0.9599 -0.2804 0.2804 0.9599 691.6015 299.5833)" class="st30 st31 st45 st46">SAFETY TRIP</text>
				</g>
				<g>
					<text transform="matrix(0.9599 -0.2804 0.2804 0.9599 1077.6722 147.0221)" class="st30 st34 st43 st44">EXPLORE HEAVEN</text>
					<text transform="matrix(0.9599 -0.2804 0.2804 0.9599 1197.1664 151.8942)" class="st30 st31 st45 st46">SAFETY TRIP</text>
				</g>
			</g>
		</g>
		<g class="st29">
			<g>
				<g>
					<text transform="matrix(0.9599 -0.2804 0.2804 0.9599 -176.7947 685.6202)" class="st30 st34 st47 st36">EXPLORE HEAVEN</text>
				</g>
				<g>
					<text transform="matrix(0.9599 -0.2804 0.2804 0.9599 499.5765 488.0339)" class="st30 st34 st47 st36">EXPLORE HEAVEN</text>
					<text transform="matrix(0.9599 -0.2804 0.2804 0.9599 659.4437 494.5515)" class="st30 st31 st48 st33">SAFETY TRIP</text>
				</g>
				<g>
					<text transform="matrix(0.9599 -0.2804 0.2804 0.9599 1175.9468 290.4479)" class="st30 st34 st47 st36">EXPLORE HEAVEN</text>
					<text transform="matrix(0.9599 -0.2804 0.2804 0.9599 1335.8131 296.9657)" class="st30 st31 st48 st33">SAFETY TRIP</text>
				</g>
				<g>
					<text transform="matrix(0.9599 -0.2804 0.2804 0.9599 1852.318 92.8616)" class="st30 st34 st47 st36">EXPLORE HEAVEN</text>
				</g>
				<g>
					<text transform="matrix(0.9599 -0.2804 0.2804 0.9599 351.6964 742.414)" class="st30 st34 st47 st36">EXPLORE HEAVEN</text>
				</g>
				<g>
					<text transform="matrix(0.9599 -0.2804 0.2804 0.9599 1028.0667 544.828)" class="st30 st34 st47 st36">EXPLORE HEAVEN</text>
					<text transform="matrix(0.9599 -0.2804 0.2804 0.9599 1187.933 551.3458)" class="st30 st31 st48 st33">SAFETY TRIP</text>
				</g>
				<g>
					<text transform="matrix(0.9599 -0.2804 0.2804 0.9599 1704.4398 347.2411)" class="st30 st34 st47 st36">EXPLORE HEAVEN</text>
				</g>
			</g>
			<g>
				<g>
					<text transform="matrix(0.9599 -0.2804 0.2804 0.9599 1292.2769 688.6655)" class="st30 st34 st47 st36">EXPLORE HEAVEN</text>
				</g>
				<g>
					<text transform="matrix(0.9599 -0.2804 0.2804 0.9599 1820.7699 745.4587)" class="st30 st34 st47 st36">EXPLORE HEAVEN</text>
				</g>
			</g>
		</g>
		<linearGradient id="SVGID_1_" gradientUnits="userSpaceOnUse" x1="934.6413" y1="17.197" x2="917.1941" y2="428.175">
			<stop  offset="0" style="stop-color:#000000"/>
			<stop  offset="1" style="stop-color:#000000;stop-opacity:0"/>
		</linearGradient>
		<rect y="0" class="st0" width="1846.35" height="574.58"/>
		
			<linearGradient id="SVGID_00000146483548953195928550000017904849349387268509_" gradientUnits="userSpaceOnUse" x1="933.4156" y1="11.1692" x2="917.8335" y2="378.2146">
			<stop  offset="0" style="stop-color:#000000"/>
			<stop  offset="1" style="stop-color:#000000;stop-opacity:0"/>
		</linearGradient>
		<rect y="0" style="fill:url(#SVGID_00000146483548953195928550000017904849349387268509_);" width="1846.35" height="504.78"/>
		
			<linearGradient id="SVGID_00000029748924578652725480000001008067310365235594_" gradientUnits="userSpaceOnUse" x1="-7792.3682" y1="-3.9886" x2="-7803.2603" y2="252.5815" gradientTransform="matrix(-1 0 0 -1 -6876.3516 574.5771)">
			<stop  offset="0" style="stop-color:#000000"/>
			<stop  offset="1" style="stop-color:#000000;stop-opacity:0"/>
		</linearGradient>
		<polygon style="fill:url(#SVGID_00000029748924578652725480000001008067310365235594_);" points="0,245.32 1846.35,245.32 
			1846.35,574.58 0,574.58 		"/>
		
			<linearGradient id="SVGID_00000002383303156384792620000003438467173458656954_" gradientUnits="userSpaceOnUse" x1="-7793.9551" y1="-11.7932" x2="-7802.4326" y2="187.8947" gradientTransform="matrix(-1 0 0 -1 -6876.3516 574.5771)">
			<stop  offset="0" style="stop-color:#000000"/>
			<stop  offset="1" style="stop-color:#000000;stop-opacity:0"/>
		</linearGradient>
		<polygon style="fill:url(#SVGID_00000002383303156384792620000003438467173458656954_);" points="0,335.7 1846.35,335.7 
			1846.35,574.58 0,574.58 		"/>
		<g>
			<g>
				<g>
					
						<radialGradient id="SVGID_00000102536081844244828690000009800754206269947268_" cx="8928.9844" cy="-1014.4799" r="88.4462" gradientTransform="matrix(0.9927 0.1202 -0.1202 0.9927 -7957.4922 190.2263)" gradientUnits="userSpaceOnUse">
						<stop  offset="0" style="stop-color:#FFFAD2"/>
						<stop  offset="0.0312" style="stop-color:#FDF6C9"/>
						<stop  offset="0.1992" style="stop-color:#F5E39E"/>
						<stop  offset="0.2848" style="stop-color:#F2DC8E"/>
						<stop  offset="0.6269" style="stop-color:#FFC200"/>
						<stop  offset="0.685" style="stop-color:#FCBD00;stop-opacity:0.9065"/>
						<stop  offset="0.7533" style="stop-color:#F2AF00;stop-opacity:0.7967"/>
						<stop  offset="0.8267" style="stop-color:#E39700;stop-opacity:0.6787"/>
						<stop  offset="0.9037" style="stop-color:#CD7600;stop-opacity:0.5548"/>
						<stop  offset="0.9828" style="stop-color:#B14C00;stop-opacity:0.4276"/>
						<stop  offset="1" style="stop-color:#AA4200;stop-opacity:0.4"/>
					</radialGradient>
					<path style="fill:url(#SVGID_00000102536081844244828690000009800754206269947268_);" d="M1081.63,180.88
						c0,0-40.82,15.94-49.65,50.06c-5.42,20.95,3.37,73.34-56.22,101.1l5.4-44.59c0,0,28.51-2.58,30.16-38.12
						C1013.03,212.05,1025.07,195.5,1081.63,180.88z"/>
					
						<radialGradient id="SVGID_00000055672850383535307510000017107107837806138300_" cx="8964.8672" cy="-970.0569" r="48.8148" gradientTransform="matrix(0.9927 0.1202 -0.1202 0.9927 -7957.4922 190.2263)" gradientUnits="userSpaceOnUse">
						<stop  offset="0" style="stop-color:#FFFAD2"/>
						<stop  offset="0.0312" style="stop-color:#FDF6C9"/>
						<stop  offset="0.1992" style="stop-color:#F5E39E"/>
						<stop  offset="0.2848" style="stop-color:#F2DC8E"/>
						<stop  offset="0.6269" style="stop-color:#FFC200"/>
						<stop  offset="0.6595" style="stop-color:#F5B200;stop-opacity:0.9475"/>
						<stop  offset="0.7704" style="stop-color:#D58200;stop-opacity:0.7692"/>
						<stop  offset="0.8681" style="stop-color:#BD5F00;stop-opacity:0.6121"/>
						<stop  offset="0.948" style="stop-color:#AF4A00;stop-opacity:0.4837"/>
						<stop  offset="1" style="stop-color:#AA4200;stop-opacity:0.4"/>
					</radialGradient>
					<path style="fill:url(#SVGID_00000055672850383535307510000017107107837806138300_);" d="M1104.26,297.11
						c0,0-27.35,24.93-90.17,14.93c-3.91-0.62,12.22-11.7,35.61-12.29C1073.09,299.16,1092.65,302.38,1104.26,297.11z"/>
					
						<radialGradient id="SVGID_00000080179479966854510530000006178598515899665294_" cx="9018.6699" cy="-1012.0102" r="85.216" gradientTransform="matrix(0.9927 0.1202 -0.1202 0.9927 -7957.4922 190.2263)" gradientUnits="userSpaceOnUse">
						<stop  offset="0" style="stop-color:#FFFAD2"/>
						<stop  offset="0.0312" style="stop-color:#FDF6C9"/>
						<stop  offset="0.1992" style="stop-color:#F5E39E"/>
						<stop  offset="0.2848" style="stop-color:#F2DC8E"/>
						<stop  offset="0.6269" style="stop-color:#FFC200"/>
						<stop  offset="0.6792" style="stop-color:#FABB00;stop-opacity:0.9158"/>
						<stop  offset="0.7552" style="stop-color:#EEA800;stop-opacity:0.7936"/>
						<stop  offset="0.8456" style="stop-color:#D98800;stop-opacity:0.6482"/>
						<stop  offset="0.9463" style="stop-color:#BB5C00;stop-opacity:0.4863"/>
						<stop  offset="1" style="stop-color:#AA4200;stop-opacity:0.4"/>
					</radialGradient>
					<path style="fill:url(#SVGID_00000080179479966854510530000006178598515899665294_);" d="M1200.67,248.7
						c0,0-55.06,36.64-110.16,38.36l-56.32,3.62c0,0,5.98-15.53,45.24-19.68C1118.69,266.85,1158.73,267.25,1200.67,248.7z"/>
					
						<radialGradient id="SVGID_00000180331347583188353350000007632137589637147574_" cx="9056.4141" cy="-1063.0601" r="119.7738" gradientTransform="matrix(0.9927 0.1202 -0.1202 0.9927 -7957.4922 190.2263)" gradientUnits="userSpaceOnUse">
						<stop  offset="0.2848" style="stop-color:#F2DC8E"/>
						<stop  offset="0.6269" style="stop-color:#FFC200"/>
						<stop  offset="0.6792" style="stop-color:#FABB00;stop-opacity:0.9158"/>
						<stop  offset="0.7552" style="stop-color:#EEA800;stop-opacity:0.7936"/>
						<stop  offset="0.8456" style="stop-color:#D98800;stop-opacity:0.6482"/>
						<stop  offset="0.9463" style="stop-color:#BB5C00;stop-opacity:0.4863"/>
						<stop  offset="1" style="stop-color:#AA4200;stop-opacity:0.4"/>
					</radialGradient>
					<path style="fill:url(#SVGID_00000180331347583188353350000007632137589637147574_);" d="M1283.91,181.1
						c0,0-51.54,60.27-164.72,71.85c0,0-62.88,6.17-80.92,13.06c-1.01,0.39,7.39-21.11,33.7-28.54
						C1098.29,230.04,1239.43,223.39,1283.91,181.1z"/>
					
						<radialGradient id="SVGID_00000040562952427162099490000001091769468718833049_" cx="9059.3955" cy="-1096.3804" r="126.7747" gradientTransform="matrix(0.9927 0.1202 -0.1202 0.9927 -7957.4922 190.2263)" gradientUnits="userSpaceOnUse">
						<stop  offset="0" style="stop-color:#FFFAD2"/>
						<stop  offset="0.0312" style="stop-color:#FDF6C9"/>
						<stop  offset="0.1992" style="stop-color:#F5E39E"/>
						<stop  offset="0.2848" style="stop-color:#F2DC8E"/>
						<stop  offset="0.6269" style="stop-color:#FFC200"/>
						<stop  offset="0.6792" style="stop-color:#FABB00;stop-opacity:0.9158"/>
						<stop  offset="0.7552" style="stop-color:#EEA800;stop-opacity:0.7936"/>
						<stop  offset="0.8456" style="stop-color:#D98800;stop-opacity:0.6482"/>
						<stop  offset="0.9463" style="stop-color:#BB5C00;stop-opacity:0.4863"/>
						<stop  offset="1" style="stop-color:#AA4200;stop-opacity:0.4"/>
					</radialGradient>
					<path style="fill:url(#SVGID_00000040562952427162099490000001091769468718833049_);" d="M1296.08,138.31
						c0,0-50.07,61.18-165.44,73.84c0,0-76.45,8.38-90.64,31.13c-1.45,2.32,19.74-52.53,72.87-58.92
						C1166,177.98,1255.41,171.5,1296.08,138.31z"/>
				</g>
				<g>
					
						<radialGradient id="SVGID_00000166640283201981488750000007946649159284182972_" cx="-3926.3701" cy="542.1555" r="88.4462" gradientTransform="matrix(-0.9927 0.1202 0.1202 0.9927 -3145.4143 190.2263)" gradientUnits="userSpaceOnUse">
						<stop  offset="0" style="stop-color:#FFFAD2"/>
						<stop  offset="0.0312" style="stop-color:#FDF6C9"/>
						<stop  offset="0.1992" style="stop-color:#F5E39E"/>
						<stop  offset="0.2848" style="stop-color:#F2DC8E"/>
						<stop  offset="0.6269" style="stop-color:#FFC200"/>
						<stop  offset="0.685" style="stop-color:#FCBD00;stop-opacity:0.9065"/>
						<stop  offset="0.7533" style="stop-color:#F2AF00;stop-opacity:0.7967"/>
						<stop  offset="0.8267" style="stop-color:#E39700;stop-opacity:0.6787"/>
						<stop  offset="0.9037" style="stop-color:#CD7600;stop-opacity:0.5548"/>
						<stop  offset="0.9828" style="stop-color:#B14C00;stop-opacity:0.4276"/>
						<stop  offset="1" style="stop-color:#AA4200;stop-opacity:0.4"/>
					</radialGradient>
					<path style="fill:url(#SVGID_00000166640283201981488750000007946649159284182972_);" d="M764.72,180.88
						c0,0,40.82,15.94,49.65,50.06c5.42,20.95-3.37,73.34,56.22,101.1l-5.4-44.59c0,0-28.51-2.58-30.16-38.12
						C833.32,212.05,821.28,195.5,764.72,180.88z"/>
					
						<radialGradient id="SVGID_00000150095553721336100420000000091484971547963551_" cx="-3890.4866" cy="586.5784" r="48.8148" gradientTransform="matrix(-0.9927 0.1202 0.1202 0.9927 -3145.4143 190.2263)" gradientUnits="userSpaceOnUse">
						<stop  offset="0" style="stop-color:#FFFAD2"/>
						<stop  offset="0.0312" style="stop-color:#FDF6C9"/>
						<stop  offset="0.1992" style="stop-color:#F5E39E"/>
						<stop  offset="0.2848" style="stop-color:#F2DC8E"/>
						<stop  offset="0.6269" style="stop-color:#FFC200"/>
						<stop  offset="0.6473" style="stop-color:#F7B600;stop-opacity:0.9671"/>
						<stop  offset="0.7249" style="stop-color:#DB8D00;stop-opacity:0.8424"/>
						<stop  offset="0.8007" style="stop-color:#C66C00;stop-opacity:0.7205"/>
						<stop  offset="0.8733" style="stop-color:#B65500;stop-opacity:0.6038"/>
						<stop  offset="0.9413" style="stop-color:#AD4700;stop-opacity:0.4945"/>
						<stop  offset="1" style="stop-color:#AA4200;stop-opacity:0.4"/>
					</radialGradient>
					<path style="fill:url(#SVGID_00000150095553721336100420000000091484971547963551_);" d="M742.09,297.11
						c0,0,27.35,24.93,90.17,14.93c3.91-0.62-12.22-11.7-35.61-12.29C773.26,299.16,753.7,302.38,742.09,297.11z"/>
					
						<radialGradient id="SVGID_00000149384279072198119930000006712257887249275782_" cx="-3836.6843" cy="544.6251" r="85.216" gradientTransform="matrix(-0.9927 0.1202 0.1202 0.9927 -3145.4143 190.2263)" gradientUnits="userSpaceOnUse">
						<stop  offset="0" style="stop-color:#FFFAD2"/>
						<stop  offset="0.0312" style="stop-color:#FDF6C9"/>
						<stop  offset="0.1992" style="stop-color:#F5E39E"/>
						<stop  offset="0.2848" style="stop-color:#F2DC8E"/>
						<stop  offset="0.6269" style="stop-color:#FFC200"/>
						<stop  offset="0.6792" style="stop-color:#FABB00;stop-opacity:0.9158"/>
						<stop  offset="0.7552" style="stop-color:#EEA800;stop-opacity:0.7936"/>
						<stop  offset="0.8456" style="stop-color:#D98800;stop-opacity:0.6482"/>
						<stop  offset="0.9463" style="stop-color:#BB5C00;stop-opacity:0.4863"/>
						<stop  offset="1" style="stop-color:#AA4200;stop-opacity:0.4"/>
					</radialGradient>
					<path style="fill:url(#SVGID_00000149384279072198119930000006712257887249275782_);" d="M645.68,248.7
						c0,0,55.06,36.64,110.16,38.36l56.32,3.62c0,0-5.98-15.53-45.24-19.68C727.66,266.85,687.62,267.25,645.68,248.7z"/>
					
						<radialGradient id="SVGID_00000139272654852391252740000009397619657461436309_" cx="-3798.9397" cy="493.5753" r="119.7738" gradientTransform="matrix(-0.9927 0.1202 0.1202 0.9927 -3145.4143 190.2263)" gradientUnits="userSpaceOnUse">
						<stop  offset="0.2848" style="stop-color:#F2DC8E"/>
						<stop  offset="0.6269" style="stop-color:#FFC200"/>
						<stop  offset="0.6792" style="stop-color:#FABB00;stop-opacity:0.9158"/>
						<stop  offset="0.7552" style="stop-color:#EEA800;stop-opacity:0.7936"/>
						<stop  offset="0.8456" style="stop-color:#D98800;stop-opacity:0.6482"/>
						<stop  offset="0.9463" style="stop-color:#BB5C00;stop-opacity:0.4863"/>
						<stop  offset="1" style="stop-color:#AA4200;stop-opacity:0.4"/>
					</radialGradient>
					<path style="fill:url(#SVGID_00000139272654852391252740000009397619657461436309_);" d="M562.44,181.1
						c0,0,51.54,60.27,164.72,71.85c0,0,62.88,6.17,80.92,13.06c1.01,0.39-7.39-21.11-33.7-28.54
						C748.06,230.04,606.92,223.39,562.44,181.1z"/>
					
						<radialGradient id="SVGID_00000027604595982596377940000012525557110595521951_" cx="-3795.9592" cy="460.255" r="126.7747" gradientTransform="matrix(-0.9927 0.1202 0.1202 0.9927 -3145.4143 190.2263)" gradientUnits="userSpaceOnUse">
						<stop  offset="0" style="stop-color:#FFFAD2"/>
						<stop  offset="0.0312" style="stop-color:#FDF6C9"/>
						<stop  offset="0.1992" style="stop-color:#F5E39E"/>
						<stop  offset="0.2848" style="stop-color:#F2DC8E"/>
						<stop  offset="0.6269" style="stop-color:#FFC200"/>
						<stop  offset="0.6792" style="stop-color:#FABB00;stop-opacity:0.9158"/>
						<stop  offset="0.7552" style="stop-color:#EEA800;stop-opacity:0.7936"/>
						<stop  offset="0.8456" style="stop-color:#D98800;stop-opacity:0.6482"/>
						<stop  offset="0.9463" style="stop-color:#BB5C00;stop-opacity:0.4863"/>
						<stop  offset="1" style="stop-color:#AA4200;stop-opacity:0.4"/>
					</radialGradient>
					<path style="fill:url(#SVGID_00000027604595982596377940000012525557110595521951_);" d="M550.27,138.31
						c0,0,50.07,61.18,165.44,73.84c0,0,76.45,8.38,90.64,31.13c1.45,2.32-19.74-52.53-72.87-58.92
						C680.35,177.98,590.94,171.5,550.27,138.31z"/>
				</g>
				<g>
					<path d="M940.33,210.61c-4.59-1.45-9.37-2.22-14.27-2.22c-4.66,0-9.2,0.7-13.58,2.01c-29.32,8.78-51.31,45.4-51.31,89.24
						c0,2.15,0.06,4.29,0.16,6.4c1.67,33.85,16.47,62.61,37.28,76.3c8.34,5.48,17.64,8.55,27.45,8.55
						c35.84,0,64.89-40.85,64.89-91.25C990.96,256.14,969.31,219.75,940.33,210.61z"/>
					
						<radialGradient id="SVGID_00000089568257772085951110000006634682674402650555_" cx="926.0646" cy="298.8016" r="71.9609" gradientUnits="userSpaceOnUse">
						<stop  offset="0" style="stop-color:#FFFAD2"/>
						<stop  offset="0.1146" style="stop-color:#FCF2C1"/>
						<stop  offset="0.3413" style="stop-color:#F3DF94"/>
						<stop  offset="0.3708" style="stop-color:#F2DC8E"/>
						<stop  offset="0.6854" style="stop-color:#F0BF00"/>
						<stop  offset="1" style="stop-color:#C9961A"/>
					</radialGradient>
					<path style="fill:url(#SVGID_00000089568257772085951110000006634682674402650555_);" d="M939.03,217.88
						c-4.17-1.32-8.51-2.02-12.97-2.02c-4.23,0-8.36,0.63-12.35,1.83c-26.65,7.98-46.63,41.26-46.63,81.11
						c0,1.96,0.05,3.9,0.15,5.82c1.52,30.77,14.96,56.91,33.88,69.35c7.58,4.98,16.03,7.77,24.95,7.77
						c32.57,0,58.98-37.13,58.98-82.94C985.04,259.26,965.37,226.19,939.03,217.88z"/>
					<g>
						<path class="st11" d="M957.43,301.67c4.03-19.35,3.44-41.06-6.45-58.62c-3.59-6.37-8.16-12.02-13.39-17.01
							c-3.71-1.18-7.57-1.81-11.53-1.81c-3.77,0-7.44,0.57-10.98,1.64c0.12,2.11,0.18,4.25,0.18,6.4
							c0,38.03-18.32,69.17-41.52,71.76c1.35,27.66,13.31,51.17,30.14,62.36C933.38,361.91,951.62,329.54,957.43,301.67z"/>
						<g>
							<path class="st11" d="M915.26,232.27c0-2.16-0.06-4.29-0.18-6.4c-23.7,7.18-41.47,37.1-41.47,72.94
								c0,1.76,0.05,3.5,0.13,5.23C896.94,301.44,915.26,270.3,915.26,232.27z"/>
							<path class="st11" d="M978.52,298.8c0-35.55-17.5-65.29-40.92-72.76c5.23,4.99,9.8,10.64,13.39,17.01
								c9.89,17.56,10.48,39.27,6.45,58.62c-5.81,27.87-24.05,60.25-53.56,64.72c6.74,4.48,14.26,6.99,22.19,6.99
								C955.03,373.38,978.52,339.99,978.52,298.8z"/>
						</g>
					</g>
					<g>
						<path class="st11" d="M938.48,278.57c-2.52,15.68-9.79,29.66-13.13,45.05c-2.54,11.66-4.26,23.9-3.3,35.88
							c18.9-11.92,30.88-36.23,35.39-57.84c4.03-19.35,3.44-41.06-6.45-58.62c-3.59-6.37-8.16-12.02-13.38-17.01
							c-2.25-0.72-4.56-1.23-6.91-1.52c2.03,2.92,3.62,6.17,4.85,9.49C940.79,248.15,940.84,263.83,938.48,278.57z"/>
						<path class="st11" d="M914.01,321.81c0.7-7.44,2.89-14.45,5.05-21.58c4.28-14.08,9.85-27.76,10.84-42.59
							c0.4-6.1,0.2-12.25-0.69-18.3c-0.05-0.47-0.11-0.93-0.16-1.4c-0.56-4.57-1.3-9.19-2.34-13.71c-0.21,0-0.42-0.01-0.64-0.01
							c-3.77,0-7.44,0.57-10.98,1.64c0.12,2.11,0.18,4.25,0.18,6.4c0,38.03-18.32,69.17-41.52,71.76
							c1.35,27.66,13.31,51.17,30.14,62.36c4.59-0.7,8.91-2.07,12.95-4C912.64,349.48,912.88,333.79,914.01,321.81z"/>
						
							<radialGradient id="SVGID_00000052791550435671061250000006106036933144335272_" cx="926.6384" cy="298.1847" r="57.0389" gradientUnits="userSpaceOnUse">
							<stop  offset="0" style="stop-color:#FFFAD2"/>
							<stop  offset="0.1146" style="stop-color:#FCF2C1"/>
							<stop  offset="0.3413" style="stop-color:#F3DF94"/>
							<stop  offset="0.3708" style="stop-color:#F2DC8E"/>
							<stop  offset="0.6854" style="stop-color:#F0BF00"/>
							<stop  offset="1" style="stop-color:#C9961A"/>
						</radialGradient>
						<path style="fill:url(#SVGID_00000052791550435671061250000006106036933144335272_);" d="M924.53,376.51
							c0.45,0.51,1,0.92,1.61,1.23c-0.61-1.43-1.13-2.9-1.59-4.39c-0.88-0.04-1.75-0.11-2.61-0.2
							C922.73,374.32,923.59,375.45,924.53,376.51z"/>
						
							<radialGradient id="SVGID_00000144324006562288676870000009136827637742174622_" cx="926.6384" cy="298.1847" r="57.0389" gradientUnits="userSpaceOnUse">
							<stop  offset="0" style="stop-color:#FFFAD2"/>
							<stop  offset="0.1146" style="stop-color:#FCF2C1"/>
							<stop  offset="0.3413" style="stop-color:#F3DF94"/>
							<stop  offset="0.3708" style="stop-color:#F2DC8E"/>
							<stop  offset="0.6854" style="stop-color:#F0BF00"/>
							<stop  offset="1" style="stop-color:#C9961A"/>
						</radialGradient>
						<path style="fill:url(#SVGID_00000144324006562288676870000009136827637742174622_);" d="M928.74,221.98
							c-0.65-0.76-3.24-2.46-3.51-3.35c0.56,1.85,1.04,3.72,1.48,5.61c1.34,0.02,2.67,0.11,3.99,0.28
							C930.08,223.64,929.43,222.79,928.74,221.98z"/>
						<path class="st11" d="M929.21,239.34c0.9,6.05,1.1,12.2,0.69,18.3c-0.98,14.84-6.56,28.51-10.84,42.59
							c-2.17,7.13-4.35,14.13-5.05,21.58c-1.13,11.98-1.38,27.67,2.81,40.59c1.8-0.86,3.53-1.83,5.22-2.89
							c-0.96-11.99,0.76-24.22,3.3-35.88c3.35-15.39,10.62-29.37,13.13-45.05c2.37-14.74,2.31-30.42-2.94-44.57
							c-1.23-3.32-2.81-6.57-4.85-9.49c-1.32-0.16-2.65-0.26-3.99-0.28c1.05,4.52,1.79,9.13,2.34,13.71
							C929.1,238.41,929.16,238.88,929.21,239.34z"/>
						
							<radialGradient id="SVGID_00000165931406557042767730000010982369612169965997_" cx="926.6393" cy="298.1847" r="57.0387" gradientUnits="userSpaceOnUse">
							<stop  offset="0" style="stop-color:#FFFAD2"/>
							<stop  offset="0.1146" style="stop-color:#FCF2C1"/>
							<stop  offset="0.3413" style="stop-color:#F3DF94"/>
							<stop  offset="0.3708" style="stop-color:#F2DC8E"/>
							<stop  offset="0.6854" style="stop-color:#F0BF00"/>
							<stop  offset="1" style="stop-color:#C9961A"/>
						</radialGradient>
						<path style="fill:url(#SVGID_00000165931406557042767730000010982369612169965997_);" d="M929.21,239.34
							c0.9,6.05,1.1,12.2,0.69,18.3c-0.98,14.84-6.56,28.51-10.84,42.59c-2.17,7.13-4.35,14.13-5.05,21.58
							c-1.13,11.98-1.38,27.67,2.81,40.59c1.8-0.86,3.53-1.83,5.22-2.89c-0.96-11.99,0.76-24.22,3.3-35.88
							c3.35-15.39,10.62-29.37,13.13-45.05c2.37-14.74,2.31-30.42-2.94-44.57c-1.23-3.32-2.81-6.57-4.85-9.49
							c-1.32-0.16-2.65-0.26-3.99-0.28c1.05,4.52,1.79,9.13,2.34,13.71C929.1,238.41,929.16,238.88,929.21,239.34z"/>
						
							<linearGradient id="SVGID_00000022546108160849412400000015701659293290019246_" gradientUnits="userSpaceOnUse" x1="903.8766" y1="366.4256" x2="978.5181" y2="366.4256">
							<stop  offset="5.618000e-03" style="stop-color:#FFFFFF"/>
							<stop  offset="1" style="stop-color:#FFFFFF"/>
						</linearGradient>
						<path style="fill:url(#SVGID_00000022546108160849412400000015701659293290019246_);" d="M922.04,359.5
							c-1.69,1.06-3.42,2.04-5.22,2.89c1.27,3.9,2.94,7.54,5.11,10.75c0.86,0.1,1.74,0.17,2.61,0.2c-0.54-1.76-0.99-3.56-1.35-5.36
							C922.65,365.18,922.27,362.35,922.04,359.5z"/>
						
							<radialGradient id="SVGID_00000030467550572248154360000011493603125183351172_" cx="926.6384" cy="298.1847" r="57.0389" gradientUnits="userSpaceOnUse">
							<stop  offset="0" style="stop-color:#FFFAD2"/>
							<stop  offset="0.1146" style="stop-color:#FCF2C1"/>
							<stop  offset="0.3413" style="stop-color:#F3DF94"/>
							<stop  offset="0.3708" style="stop-color:#F2DC8E"/>
							<stop  offset="0.6854" style="stop-color:#F0BF00"/>
							<stop  offset="1" style="stop-color:#C9961A"/>
						</radialGradient>
						<path style="fill:url(#SVGID_00000030467550572248154360000011493603125183351172_);" d="M922.04,359.5
							c-1.69,1.06-3.42,2.04-5.22,2.89c1.27,3.9,2.94,7.54,5.11,10.75c0.86,0.1,1.74,0.17,2.61,0.2c-0.54-1.76-0.99-3.56-1.35-5.36
							C922.65,365.18,922.27,362.35,922.04,359.5z"/>
					</g>
				</g>
				
					<radialGradient id="SVGID_00000130632945284032160140000017688561254248413075_" cx="924.8212" cy="140.7585" r="160.9457" gradientUnits="userSpaceOnUse">
					<stop  offset="0" style="stop-color:#FFFAD2"/>
					<stop  offset="0.0312" style="stop-color:#FDF6C9"/>
					<stop  offset="0.1992" style="stop-color:#F5E39E"/>
					<stop  offset="0.2848" style="stop-color:#F2DC8E"/>
					<stop  offset="0.6269" style="stop-color:#FFC200"/>
					<stop  offset="0.685" style="stop-color:#FCBD00;stop-opacity:0.9065"/>
					<stop  offset="0.7533" style="stop-color:#F2AF00;stop-opacity:0.7967"/>
					<stop  offset="0.8267" style="stop-color:#E39700;stop-opacity:0.6787"/>
					<stop  offset="0.9037" style="stop-color:#CD7600;stop-opacity:0.5548"/>
					<stop  offset="0.9828" style="stop-color:#B14C00;stop-opacity:0.4276"/>
					<stop  offset="1" style="stop-color:#AA4200;stop-opacity:0.4"/>
				</radialGradient>
				<path style="fill:url(#SVGID_00000130632945284032160140000017688561254248413075_);" d="M925.22,119.93
					c0.44-0.36,0.98-0.54,1.51-0.54c0.54,0,1.08,0.18,1.51,0.54c43.38,35.83,85.15,55.82,114.53,66.67
					c7.95-3.76,17.53-7.19,29.2-10.5c-8.48-2.36-19.47-5.9-32.34-11.1c-27.87-11.27-69.96-32.79-112.88-71.49
					c-42.79,38.47-84.88,60-112.8,71.31c-14.92,6.05-27.35,9.88-36.28,12.23c11.59,3.42,21.03,7,28.79,10.96
					C836.05,177.51,879.8,157.33,925.22,119.93z"/>
				<path class="st18" d="M764.5,180.06c0,0.02,0.01,0.05,0.01,0.07l0.03-0.08C764.52,180.06,764.51,180.06,764.5,180.06z"/>
				
					<radialGradient id="SVGID_00000022532619984248166500000006424257866869031566_" cx="926.7143" cy="397.2581" r="158.2707" gradientUnits="userSpaceOnUse">
					<stop  offset="0" style="stop-color:#FFFAD2"/>
					<stop  offset="0.0312" style="stop-color:#FDF6C9"/>
					<stop  offset="0.1992" style="stop-color:#F5E39E"/>
					<stop  offset="0.2848" style="stop-color:#F2DC8E"/>
					<stop  offset="0.6269" style="stop-color:#FFC200"/>
					<stop  offset="0.685" style="stop-color:#FCBD00;stop-opacity:0.9065"/>
					<stop  offset="0.7533" style="stop-color:#F2AF00;stop-opacity:0.7967"/>
					<stop  offset="0.8267" style="stop-color:#E39700;stop-opacity:0.6787"/>
					<stop  offset="0.9037" style="stop-color:#CD7600;stop-opacity:0.5548"/>
					<stop  offset="0.9828" style="stop-color:#B14C00;stop-opacity:0.4276"/>
					<stop  offset="1" style="stop-color:#AA4200;stop-opacity:0.4"/>
				</radialGradient>
				<path style="fill:url(#SVGID_00000022532619984248166500000006424257866869031566_);" d="M1032.94,321.26
					c-12.65,27.65-28.24,52.89-46.46,75.16c-24.82,30.34-49.19,48.11-58.52,54.34c-0.4,0.27-0.86,0.4-1.32,0.4s-0.92-0.13-1.32-0.4
					c-9.33-6.23-33.7-24.01-58.52-54.34c-18.33-22.4-34-47.82-46.68-75.66c-5.6,0.52-11.08,0.79-16.39,0.79c0,0,0,0-0.01,0
					c-1.38,0-2.74-0.02-4.08-0.05c14.24,32.96,32.4,62.86,54.03,88.9c34.77,41.86,67.77,60.56,72.98,63.36
					c2.37-1.27,10.5-5.82,21.83-14.28c12.46-9.3,31.44-25.37,51.14-49.09c21.7-26.13,39.92-56.15,54.18-89.25
					c-3.54,0.25-7.25,0.4-11.16,0.4C1039.46,321.55,1036.22,321.45,1032.94,321.26z"/>
			</g>
			<g class="st20">
				
					<linearGradient id="SVGID_00000155839150758719045670000012031928693608130950_" gradientUnits="userSpaceOnUse" x1="883.0626" y1="258.9541" x2="910.9967" y2="273.7118">
					<stop  offset="5.618000e-03" style="stop-color:#FFFFFF"/>
					<stop  offset="1" style="stop-color:#FFFFFF;stop-opacity:0"/>
				</linearGradient>
				<path style="fill:url(#SVGID_00000155839150758719045670000012031928693608130950_);" d="M915.26,232.27
					c0-2.16-0.06-4.29-0.18-6.4c-23.7,7.18-41.47,37.1-41.47,72.94c0,1.76,0.05,3.5,0.13,5.23
					C896.94,301.44,915.26,270.3,915.26,232.27z"/>
				
					<linearGradient id="SVGID_00000048497053235258016300000002252444141205737392_" gradientUnits="userSpaceOnUse" x1="976.5738" y1="312.8637" x2="936.5174" y2="301.2684">
					<stop  offset="5.618000e-03" style="stop-color:#FFFFFF"/>
					<stop  offset="1" style="stop-color:#FFFFFF;stop-opacity:0"/>
				</linearGradient>
				<path style="fill:url(#SVGID_00000048497053235258016300000002252444141205737392_);" d="M978.52,298.8
					c0-35.55-17.5-65.29-40.92-72.76c5.23,4.99,9.8,10.64,13.38,17.01c9.89,17.56,10.48,39.27,6.45,58.62
					c-4.5,21.61-16.48,45.91-35.39,57.84c0.23,2.84,0.6,5.67,1.16,8.48c0.36,1.81,0.81,3.6,1.35,5.36c0.5,0.02,1.01,0.03,1.52,0.03
					C955.03,373.38,978.52,339.99,978.52,298.8z"/>
			</g>
		</g>
	</g>
	
		<rect style="opacity:0.23;clip-path:url(#SVGID_00000172440551188895910040000007010179035476873915_);" width="1846.35" height="574.58"/>
</g>
</svg>
