<?xml version="1.0" encoding="utf-8"?>
<!-- Generator: Adobe Illustrator 25.4.1, SVG Export Plug-In . SVG Version: 6.00 Build 0)  -->
<svg version="1.1" id="Capa_1" xmlns="http://www.w3.org/2000/svg" xmlns:xlink="http://www.w3.org/1999/xlink" x="0px" y="0px"
	 viewBox="0 0 940.95 479.74" style="enable-background:new 0 0 940.95 479.74;" xml:space="preserve">
<style type="text/css">
	.st0{fill:url(#SVGID_1_);}
	.st1{fill:url(#SVGID_00000101092023490322271550000006349395235276531603_);}
	.st2{fill:url(#SVGID_00000180327161652709685670000011517589566040135609_);}
	.st3{fill:url(#SVGID_00000155113948688236790950000014931264529997015969_);}
	.st4{fill:url(#SVGID_00000114047888635649988310000002010374891944697732_);}
	.st5{fill:url(#SVGID_00000065771570991571098620000011917732269512540344_);}
	.st6{fill:url(#SVGID_00000064333233968820174290000010832704549090887577_);}
	.st7{fill:url(#SVGID_00000113336873244712347250000015983431006731971989_);}
	.st8{fill:url(#SVGID_00000140727417457004612800000000406398372885960355_);}
	.st9{fill:url(#SVGID_00000054956515044250140150000007349851690182875280_);}
	.st10{fill:url(#SVGID_00000113349949604266199990000006359016388199787409_);}
	.st11{fill:#232526;}
	.st12{fill:url(#SVGID_00000100371695850501119780000012762163151691711155_);}
	.st13{fill:url(#SVGID_00000102534622701447432630000004336613348722874771_);}
	.st14{fill:url(#SVGID_00000023282839891214970620000004814467294017256634_);}
	.st15{fill:url(#SVGID_00000061448317025392663210000013506457377698282422_);}
	.st16{fill:url(#SVGID_00000065054006353648128720000004900149596178621340_);}
	.st17{fill:url(#SVGID_00000016759449184876200290000002640296197943787432_);}
	.st18{fill:#F4DE8A;}
	.st19{fill:url(#SVGID_00000118390158074584228800000013490310885030563754_);}
	.st20{opacity:0.31;}
	.st21{fill:url(#SVGID_00000157268095333924413270000004441277092479917497_);}
	.st22{fill:url(#SVGID_00000073679207948620919800000004539138511841380273_);}
</style>
<g>
	<g>
		<g>
			
				<radialGradient id="SVGID_1_" cx="8659.0303" cy="-553.2453" r="111.5879" gradientTransform="matrix(0.9927 0.1202 -0.1202 0.9927 -8059.1406 -286.0838)" gradientUnits="userSpaceOnUse">
				<stop  offset="0" style="stop-color:#FFFAD2"/>
				<stop  offset="0.0312" style="stop-color:#FDF6C9"/>
				<stop  offset="0.1992" style="stop-color:#F5E39E"/>
				<stop  offset="0.2848" style="stop-color:#F2DC8E"/>
				<stop  offset="0.6269" style="stop-color:#FFC200"/>
				<stop  offset="0.685" style="stop-color:#FCBD00;stop-opacity:0.9065"/>
				<stop  offset="0.7533" style="stop-color:#F2AF00;stop-opacity:0.7967"/>
				<stop  offset="0.8267" style="stop-color:#E39700;stop-opacity:0.6787"/>
				<stop  offset="0.9037" style="stop-color:#CD7600;stop-opacity:0.5548"/>
				<stop  offset="0.9828" style="stop-color:#B14C00;stop-opacity:0.4276"/>
				<stop  offset="1" style="stop-color:#AA4200;stop-opacity:0.4"/>
			</radialGradient>
			<path class="st0" d="M670.39,110.23c0,0-51.51,20.11-62.65,63.16c-6.84,26.44,4.25,92.53-70.93,127.55l6.81-56.26
				c0,0,35.97-3.26,38.05-48.09C583.85,149.56,599.03,128.68,670.39,110.23z"/>
			
				<radialGradient id="SVGID_00000171721019954413225160000001481600828124838302_" cx="8704.3027" cy="-497.1992" r="61.587" gradientTransform="matrix(0.9927 0.1202 -0.1202 0.9927 -8059.1406 -286.0838)" gradientUnits="userSpaceOnUse">
				<stop  offset="0" style="stop-color:#FFFAD2"/>
				<stop  offset="0.0312" style="stop-color:#FDF6C9"/>
				<stop  offset="0.1992" style="stop-color:#F5E39E"/>
				<stop  offset="0.2848" style="stop-color:#F2DC8E"/>
				<stop  offset="0.6269" style="stop-color:#FFC200"/>
				<stop  offset="0.6595" style="stop-color:#F5B200;stop-opacity:0.9475"/>
				<stop  offset="0.7704" style="stop-color:#D58200;stop-opacity:0.7692"/>
				<stop  offset="0.8681" style="stop-color:#BD5F00;stop-opacity:0.6121"/>
				<stop  offset="0.948" style="stop-color:#AF4A00;stop-opacity:0.4837"/>
				<stop  offset="1" style="stop-color:#AA4200;stop-opacity:0.4"/>
			</radialGradient>
			<path style="fill:url(#SVGID_00000171721019954413225160000001481600828124838302_);" d="M698.94,256.88
				c0,0-34.51,31.46-113.76,18.84c-4.93-0.78,15.42-14.76,44.93-15.51C659.62,259.46,684.29,263.53,698.94,256.88z"/>
			
				<radialGradient id="SVGID_00000031174795236710619660000004719562314964303784_" cx="8772.1816" cy="-550.1295" r="107.5125" gradientTransform="matrix(0.9927 0.1202 -0.1202 0.9927 -8059.1406 -286.0838)" gradientUnits="userSpaceOnUse">
				<stop  offset="0" style="stop-color:#FFFAD2"/>
				<stop  offset="0.0312" style="stop-color:#FDF6C9"/>
				<stop  offset="0.1992" style="stop-color:#F5E39E"/>
				<stop  offset="0.2848" style="stop-color:#F2DC8E"/>
				<stop  offset="0.6269" style="stop-color:#FFC200"/>
				<stop  offset="0.6792" style="stop-color:#FABB00;stop-opacity:0.9158"/>
				<stop  offset="0.7552" style="stop-color:#EEA800;stop-opacity:0.7936"/>
				<stop  offset="0.8456" style="stop-color:#D98800;stop-opacity:0.6482"/>
				<stop  offset="0.9463" style="stop-color:#BB5C00;stop-opacity:0.4863"/>
				<stop  offset="1" style="stop-color:#AA4200;stop-opacity:0.4"/>
			</radialGradient>
			<path style="fill:url(#SVGID_00000031174795236710619660000004719562314964303784_);" d="M820.58,195.8
				c0,0-69.47,46.23-138.98,48.4l-71.05,4.57c0,0,7.55-19.59,57.07-24.83C717.15,218.7,767.67,219.2,820.58,195.8z"/>
			
				<radialGradient id="SVGID_00000028287442562701467090000003584503752447256193_" cx="8819.8018" cy="-614.5363" r="151.1122" gradientTransform="matrix(0.9927 0.1202 -0.1202 0.9927 -8059.1406 -286.0838)" gradientUnits="userSpaceOnUse">
				<stop  offset="0.2848" style="stop-color:#F2DC8E"/>
				<stop  offset="0.6269" style="stop-color:#FFC200"/>
				<stop  offset="0.6792" style="stop-color:#FABB00;stop-opacity:0.9158"/>
				<stop  offset="0.7552" style="stop-color:#EEA800;stop-opacity:0.7936"/>
				<stop  offset="0.8456" style="stop-color:#D98800;stop-opacity:0.6482"/>
				<stop  offset="0.9463" style="stop-color:#BB5C00;stop-opacity:0.4863"/>
				<stop  offset="1" style="stop-color:#AA4200;stop-opacity:0.4"/>
			</radialGradient>
			<path style="fill:url(#SVGID_00000028287442562701467090000003584503752447256193_);" d="M925.59,110.51
				c0,0-65.02,76.04-207.81,90.65c0,0-79.33,7.79-102.09,16.48c-1.27,0.49,9.32-26.63,42.52-36.01
				C691.4,172.26,869.47,163.86,925.59,110.51z"/>
			
				<radialGradient id="SVGID_00000019660121316598077950000015061280367904531884_" cx="8823.5625" cy="-656.5748" r="159.9448" gradientTransform="matrix(0.9927 0.1202 -0.1202 0.9927 -8059.1406 -286.0838)" gradientUnits="userSpaceOnUse">
				<stop  offset="0" style="stop-color:#FFFAD2"/>
				<stop  offset="0.0312" style="stop-color:#FDF6C9"/>
				<stop  offset="0.1992" style="stop-color:#F5E39E"/>
				<stop  offset="0.2848" style="stop-color:#F2DC8E"/>
				<stop  offset="0.6269" style="stop-color:#FFC200"/>
				<stop  offset="0.6792" style="stop-color:#FABB00;stop-opacity:0.9158"/>
				<stop  offset="0.7552" style="stop-color:#EEA800;stop-opacity:0.7936"/>
				<stop  offset="0.8456" style="stop-color:#D98800;stop-opacity:0.6482"/>
				<stop  offset="0.9463" style="stop-color:#BB5C00;stop-opacity:0.4863"/>
				<stop  offset="1" style="stop-color:#AA4200;stop-opacity:0.4"/>
			</radialGradient>
			<path style="fill:url(#SVGID_00000019660121316598077950000015061280367904531884_);" d="M940.95,56.52
				c0,0-63.17,77.19-208.72,93.16c0,0-96.45,10.58-114.36,39.28c-1.83,2.93,24.91-66.28,91.94-74.33
				C776.84,106.58,889.64,98.4,940.95,56.52z"/>
		</g>
		<g>
			
				<radialGradient id="SVGID_00000136370266287325972770000007253087511184846732_" cx="4440.2144" cy="-42.3953" r="111.5879" gradientTransform="matrix(-0.9927 0.1202 0.1202 0.9927 4750.4609 -286.0838)" gradientUnits="userSpaceOnUse">
				<stop  offset="0" style="stop-color:#FFFAD2"/>
				<stop  offset="0.0312" style="stop-color:#FDF6C9"/>
				<stop  offset="0.1992" style="stop-color:#F5E39E"/>
				<stop  offset="0.2848" style="stop-color:#F2DC8E"/>
				<stop  offset="0.6269" style="stop-color:#FFC200"/>
				<stop  offset="0.685" style="stop-color:#FCBD00;stop-opacity:0.9065"/>
				<stop  offset="0.7533" style="stop-color:#F2AF00;stop-opacity:0.7967"/>
				<stop  offset="0.8267" style="stop-color:#E39700;stop-opacity:0.6787"/>
				<stop  offset="0.9037" style="stop-color:#CD7600;stop-opacity:0.5548"/>
				<stop  offset="0.9828" style="stop-color:#B14C00;stop-opacity:0.4276"/>
				<stop  offset="1" style="stop-color:#AA4200;stop-opacity:0.4"/>
			</radialGradient>
			<path style="fill:url(#SVGID_00000136370266287325972770000007253087511184846732_);" d="M270.56,110.23
				c0,0,51.51,20.11,62.65,63.16c6.84,26.44-4.25,92.53,70.93,127.55l-6.81-56.26c0,0-35.97-3.26-38.05-48.09
				C357.11,149.56,341.92,128.68,270.56,110.23z"/>
			
				<radialGradient id="SVGID_00000155846994726781494180000016794728414421938358_" cx="4485.4868" cy="13.6508" r="61.587" gradientTransform="matrix(-0.9927 0.1202 0.1202 0.9927 4750.4609 -286.0838)" gradientUnits="userSpaceOnUse">
				<stop  offset="0" style="stop-color:#FFFAD2"/>
				<stop  offset="0.0312" style="stop-color:#FDF6C9"/>
				<stop  offset="0.1992" style="stop-color:#F5E39E"/>
				<stop  offset="0.2848" style="stop-color:#F2DC8E"/>
				<stop  offset="0.6269" style="stop-color:#FFC200"/>
				<stop  offset="0.6473" style="stop-color:#F7B600;stop-opacity:0.9671"/>
				<stop  offset="0.7249" style="stop-color:#DB8D00;stop-opacity:0.8424"/>
				<stop  offset="0.8007" style="stop-color:#C66C00;stop-opacity:0.7205"/>
				<stop  offset="0.8733" style="stop-color:#B65500;stop-opacity:0.6038"/>
				<stop  offset="0.9413" style="stop-color:#AD4700;stop-opacity:0.4945"/>
				<stop  offset="1" style="stop-color:#AA4200;stop-opacity:0.4"/>
			</radialGradient>
			<path style="fill:url(#SVGID_00000155846994726781494180000016794728414421938358_);" d="M242.02,256.88
				c0,0,34.51,31.46,113.76,18.84c4.93-0.78-15.42-14.76-44.93-15.51C281.33,259.46,256.66,263.53,242.02,256.88z"/>
			
				<radialGradient id="SVGID_00000098921752572099093870000000847476698580100503_" cx="4553.3662" cy="-39.2795" r="107.5125" gradientTransform="matrix(-0.9927 0.1202 0.1202 0.9927 4750.4609 -286.0838)" gradientUnits="userSpaceOnUse">
				<stop  offset="0" style="stop-color:#FFFAD2"/>
				<stop  offset="0.0312" style="stop-color:#FDF6C9"/>
				<stop  offset="0.1992" style="stop-color:#F5E39E"/>
				<stop  offset="0.2848" style="stop-color:#F2DC8E"/>
				<stop  offset="0.6269" style="stop-color:#FFC200"/>
				<stop  offset="0.6792" style="stop-color:#FABB00;stop-opacity:0.9158"/>
				<stop  offset="0.7552" style="stop-color:#EEA800;stop-opacity:0.7936"/>
				<stop  offset="0.8456" style="stop-color:#D98800;stop-opacity:0.6482"/>
				<stop  offset="0.9463" style="stop-color:#BB5C00;stop-opacity:0.4863"/>
				<stop  offset="1" style="stop-color:#AA4200;stop-opacity:0.4"/>
			</radialGradient>
			<path style="fill:url(#SVGID_00000098921752572099093870000000847476698580100503_);" d="M120.38,195.8
				c0,0,69.47,46.23,138.98,48.4l71.05,4.57c0,0-7.55-19.59-57.07-24.83C223.81,218.7,173.29,219.2,120.38,195.8z"/>
			
				<radialGradient id="SVGID_00000095304296170451319910000017913516727212351659_" cx="4600.9863" cy="-103.6864" r="151.1122" gradientTransform="matrix(-0.9927 0.1202 0.1202 0.9927 4750.4609 -286.0838)" gradientUnits="userSpaceOnUse">
				<stop  offset="0.2848" style="stop-color:#F2DC8E"/>
				<stop  offset="0.6269" style="stop-color:#FFC200"/>
				<stop  offset="0.6792" style="stop-color:#FABB00;stop-opacity:0.9158"/>
				<stop  offset="0.7552" style="stop-color:#EEA800;stop-opacity:0.7936"/>
				<stop  offset="0.8456" style="stop-color:#D98800;stop-opacity:0.6482"/>
				<stop  offset="0.9463" style="stop-color:#BB5C00;stop-opacity:0.4863"/>
				<stop  offset="1" style="stop-color:#AA4200;stop-opacity:0.4"/>
			</radialGradient>
			<path style="fill:url(#SVGID_00000095304296170451319910000017913516727212351659_);" d="M15.36,110.51
				c0,0,65.02,76.04,207.81,90.65c0,0,79.33,7.79,102.09,16.48c1.27,0.49-9.32-26.63-42.52-36.01
				C249.55,172.26,71.48,163.86,15.36,110.51z"/>
			
				<radialGradient id="SVGID_00000044873292111675527070000017369356212006363781_" cx="4604.7471" cy="-145.7248" r="159.9448" gradientTransform="matrix(-0.9927 0.1202 0.1202 0.9927 4750.4609 -286.0838)" gradientUnits="userSpaceOnUse">
				<stop  offset="0" style="stop-color:#FFFAD2"/>
				<stop  offset="0.0312" style="stop-color:#FDF6C9"/>
				<stop  offset="0.1992" style="stop-color:#F5E39E"/>
				<stop  offset="0.2848" style="stop-color:#F2DC8E"/>
				<stop  offset="0.6269" style="stop-color:#FFC200"/>
				<stop  offset="0.6792" style="stop-color:#FABB00;stop-opacity:0.9158"/>
				<stop  offset="0.7552" style="stop-color:#EEA800;stop-opacity:0.7936"/>
				<stop  offset="0.8456" style="stop-color:#D98800;stop-opacity:0.6482"/>
				<stop  offset="0.9463" style="stop-color:#BB5C00;stop-opacity:0.4863"/>
				<stop  offset="1" style="stop-color:#AA4200;stop-opacity:0.4"/>
			</radialGradient>
			<path style="fill:url(#SVGID_00000044873292111675527070000017369356212006363781_);" d="M0,56.52c0,0,63.17,77.19,208.72,93.16
				c0,0,96.45,10.58,114.36,39.28c1.83,2.93-24.91-66.28-91.94-74.33C164.11,106.58,51.31,98.4,0,56.52z"/>
		</g>
		<g>
			<path d="M492.12,147.74c-5.79-1.83-11.82-2.8-18-2.8c-5.88,0-11.61,0.88-17.14,2.53c-36.99,11.08-64.73,57.28-64.73,112.59
				c0,2.72,0.07,5.41,0.2,8.08c2.11,42.71,20.77,78.99,47.04,96.26c10.52,6.92,22.25,10.79,34.63,10.79
				c45.22,0,81.87-51.54,81.87-115.13C555.99,205.18,528.68,159.28,492.12,147.74z"/>
			
				<radialGradient id="SVGID_00000096749937294218749150000006635673586766052492_" cx="474.1216" cy="259.0086" r="90.7892" gradientUnits="userSpaceOnUse">
				<stop  offset="0" style="stop-color:#FFFAD2"/>
				<stop  offset="0.1146" style="stop-color:#FCF2C1"/>
				<stop  offset="0.3413" style="stop-color:#F3DF94"/>
				<stop  offset="0.3708" style="stop-color:#F2DC8E"/>
				<stop  offset="0.6854" style="stop-color:#F0BF00"/>
				<stop  offset="1" style="stop-color:#C9961A"/>
			</radialGradient>
			<path style="fill:url(#SVGID_00000096749937294218749150000006635673586766052492_);" d="M490.48,156.92
				c-5.27-1.66-10.74-2.54-16.36-2.54c-5.34,0-10.55,0.8-15.58,2.3c-33.62,10.07-58.83,52.06-58.83,102.33
				c0,2.47,0.07,4.92,0.19,7.34c1.91,38.82,18.88,71.8,42.75,87.49c9.56,6.29,20.22,9.8,31.48,9.8c41.1,0,74.41-46.85,74.41-104.64
				C548.53,209.13,523.71,167.4,490.48,156.92z"/>
			<g>
				<path class="st11" d="M513.7,262.62c5.09-24.41,4.34-51.8-8.14-73.95c-4.52-8.03-10.29-15.17-16.89-21.46
					c-4.68-1.49-9.55-2.29-14.55-2.29c-4.75,0-9.39,0.72-13.85,2.07c0.15,2.66,0.22,5.36,0.22,8.08c0,47.98-23.11,87.27-52.39,90.54
					c1.7,34.9,16.79,64.56,38.02,78.67C483.36,338.63,506.37,297.79,513.7,262.62z"/>
				<g>
					<path class="st11" d="M460.49,175.07c0-2.72-0.08-5.42-0.22-8.08c-29.9,9.05-52.32,46.81-52.32,92.02
						c0,2.22,0.06,4.42,0.16,6.6C437.38,262.34,460.49,223.05,460.49,175.07z"/>
					<path class="st11" d="M540.3,259.01c0-44.86-22.08-82.37-51.63-91.8c6.6,6.29,12.36,13.43,16.89,21.46
						c12.47,22.15,13.22,49.54,8.14,73.95c-7.33,35.17-30.34,76.01-67.57,81.66c8.5,5.65,17.99,8.82,27.99,8.82
						C510.67,353.1,540.3,310.97,540.3,259.01z"/>
				</g>
			</g>
			<g>
				<path class="st11" d="M489.78,233.49c-3.17,19.78-12.35,37.43-16.57,56.84c-3.2,14.71-5.37,30.15-4.16,45.27
					c23.85-15.04,38.97-45.71,44.65-72.97c5.09-24.41,4.34-51.8-8.14-73.95c-4.52-8.03-10.29-15.17-16.89-21.46
					c-2.84-0.91-5.75-1.55-8.72-1.92c2.57,3.69,4.56,7.78,6.12,11.97C492.7,195.11,492.77,214.88,489.78,233.49z"/>
				<path class="st11" d="M458.91,288.04c0.88-9.39,3.64-18.23,6.38-27.22c5.4-17.76,12.43-35.02,13.67-53.74
					c0.51-7.7,0.26-15.45-0.87-23.08c-0.07-0.59-0.13-1.18-0.21-1.76c-0.7-5.77-1.64-11.59-2.96-17.29c-0.27,0-0.54-0.02-0.8-0.02
					c-4.75,0-9.38,0.72-13.85,2.07c0.15,2.66,0.22,5.36,0.22,8.08c0,47.98-23.11,87.27-52.39,90.54
					c1.7,34.9,16.79,64.56,38.02,78.67c5.79-0.88,11.24-2.61,16.34-5.04C457.18,322.95,457.49,303.15,458.91,288.04z"/>
				
					<radialGradient id="SVGID_00000074411271301471739900000014096640529752977793_" cx="474.8456" cy="258.2303" r="71.9629" gradientUnits="userSpaceOnUse">
					<stop  offset="0" style="stop-color:#FFFAD2"/>
					<stop  offset="0.1146" style="stop-color:#FCF2C1"/>
					<stop  offset="0.3413" style="stop-color:#F3DF94"/>
					<stop  offset="0.3708" style="stop-color:#F2DC8E"/>
					<stop  offset="0.6854" style="stop-color:#F0BF00"/>
					<stop  offset="1" style="stop-color:#C9961A"/>
				</radialGradient>
				<path style="fill:url(#SVGID_00000074411271301471739900000014096640529752977793_);" d="M472.19,357.04
					c0.57,0.64,1.27,1.16,2.03,1.56c-0.77-1.81-1.43-3.66-2-5.54c-1.11-0.04-2.2-0.13-3.29-0.25
					C469.92,354.29,471,355.71,472.19,357.04z"/>
				
					<radialGradient id="SVGID_00000121277855382216398390000001154372356404505751_" cx="474.8456" cy="258.2303" r="71.9629" gradientUnits="userSpaceOnUse">
					<stop  offset="0" style="stop-color:#FFFAD2"/>
					<stop  offset="0.1146" style="stop-color:#FCF2C1"/>
					<stop  offset="0.3413" style="stop-color:#F3DF94"/>
					<stop  offset="0.3708" style="stop-color:#F2DC8E"/>
					<stop  offset="0.6854" style="stop-color:#F0BF00"/>
					<stop  offset="1" style="stop-color:#C9961A"/>
				</radialGradient>
				<path style="fill:url(#SVGID_00000121277855382216398390000001154372356404505751_);" d="M477.5,162.09
					c-0.82-0.96-4.09-3.1-4.43-4.23c0.7,2.33,1.31,4.69,1.86,7.07c1.69,0.03,3.37,0.14,5.03,0.35
					C479.19,164.18,478.37,163.11,477.5,162.09z"/>
				<path class="st11" d="M478.09,183.99c1.13,7.63,1.38,15.39,0.87,23.08c-1.24,18.72-8.27,35.97-13.67,53.74
					c-2.73,9-5.49,17.83-6.38,27.22c-1.42,15.12-1.74,34.91,3.55,51.2c2.27-1.08,4.46-2.31,6.58-3.65
					c-1.21-15.12,0.96-30.56,4.16-45.27c4.22-19.41,13.4-37.06,16.57-56.84c2.98-18.6,2.91-38.38-3.71-56.23
					c-1.55-4.19-3.55-8.29-6.12-11.97c-1.66-0.21-3.34-0.32-5.03-0.35c1.32,5.7,2.25,11.52,2.96,17.29
					C477.95,182.82,478.02,183.4,478.09,183.99z"/>
				
					<radialGradient id="SVGID_00000141446778246095693560000012233058752823461508_" cx="474.8467" cy="258.2303" r="71.9627" gradientUnits="userSpaceOnUse">
					<stop  offset="0" style="stop-color:#FFFAD2"/>
					<stop  offset="0.1146" style="stop-color:#FCF2C1"/>
					<stop  offset="0.3413" style="stop-color:#F3DF94"/>
					<stop  offset="0.3708" style="stop-color:#F2DC8E"/>
					<stop  offset="0.6854" style="stop-color:#F0BF00"/>
					<stop  offset="1" style="stop-color:#C9961A"/>
				</radialGradient>
				<path style="fill:url(#SVGID_00000141446778246095693560000012233058752823461508_);" d="M478.09,183.99
					c1.13,7.63,1.38,15.39,0.87,23.08c-1.24,18.72-8.27,35.97-13.67,53.74c-2.73,9-5.49,17.83-6.38,27.22
					c-1.42,15.12-1.74,34.91,3.55,51.2c2.27-1.08,4.46-2.31,6.58-3.65c-1.21-15.12,0.96-30.56,4.16-45.27
					c4.22-19.41,13.4-37.06,16.57-56.84c2.98-18.6,2.91-38.38-3.71-56.23c-1.55-4.19-3.55-8.29-6.12-11.97
					c-1.66-0.21-3.34-0.32-5.03-0.35c1.32,5.7,2.25,11.52,2.96,17.29C477.95,182.82,478.02,183.4,478.09,183.99z"/>
				
					<linearGradient id="SVGID_00000020365849947177847900000005442124420936854418_" gradientUnits="userSpaceOnUse" x1="446.1282" y1="344.3262" x2="540.2994" y2="344.3262">
					<stop  offset="5.618000e-03" style="stop-color:#FFFFFF"/>
					<stop  offset="1" style="stop-color:#FFFFFF"/>
				</linearGradient>
				<path style="fill:url(#SVGID_00000020365849947177847900000005442124420936854418_);" d="M469.05,335.59
					c-2.13,1.34-4.32,2.57-6.58,3.65c1.6,4.92,3.71,9.51,6.45,13.56c1.09,0.12,2.19,0.21,3.29,0.25c-0.68-2.23-1.25-4.49-1.7-6.77
					C469.81,342.75,469.34,339.18,469.05,335.59z"/>
				
					<radialGradient id="SVGID_00000155829522601398791160000002128935156751354526_" cx="474.8456" cy="258.2303" r="71.9629" gradientUnits="userSpaceOnUse">
					<stop  offset="0" style="stop-color:#FFFAD2"/>
					<stop  offset="0.1146" style="stop-color:#FCF2C1"/>
					<stop  offset="0.3413" style="stop-color:#F3DF94"/>
					<stop  offset="0.3708" style="stop-color:#F2DC8E"/>
					<stop  offset="0.6854" style="stop-color:#F0BF00"/>
					<stop  offset="1" style="stop-color:#C9961A"/>
				</radialGradient>
				<path style="fill:url(#SVGID_00000155829522601398791160000002128935156751354526_);" d="M469.05,335.59
					c-2.13,1.34-4.32,2.57-6.58,3.65c1.6,4.92,3.71,9.51,6.45,13.56c1.09,0.12,2.19,0.21,3.29,0.25c-0.68-2.23-1.25-4.49-1.7-6.77
					C469.81,342.75,469.34,339.18,469.05,335.59z"/>
			</g>
		</g>
		
			<radialGradient id="SVGID_00000004512980744173618220000016150387956750575503_" cx="472.5529" cy="59.6142" r="203.0566" gradientUnits="userSpaceOnUse">
			<stop  offset="0" style="stop-color:#FFFAD2"/>
			<stop  offset="0.0312" style="stop-color:#FDF6C9"/>
			<stop  offset="0.1992" style="stop-color:#F5E39E"/>
			<stop  offset="0.2848" style="stop-color:#F2DC8E"/>
			<stop  offset="0.6269" style="stop-color:#FFC200"/>
			<stop  offset="0.685" style="stop-color:#FCBD00;stop-opacity:0.9065"/>
			<stop  offset="0.7533" style="stop-color:#F2AF00;stop-opacity:0.7967"/>
			<stop  offset="0.8267" style="stop-color:#E39700;stop-opacity:0.6787"/>
			<stop  offset="0.9037" style="stop-color:#CD7600;stop-opacity:0.5548"/>
			<stop  offset="0.9828" style="stop-color:#B14C00;stop-opacity:0.4276"/>
			<stop  offset="1" style="stop-color:#AA4200;stop-opacity:0.4"/>
		</radialGradient>
		<path style="fill:url(#SVGID_00000004512980744173618220000016150387956750575503_);" d="M473.05,33.33
			c0.55-0.46,1.23-0.68,1.91-0.68c0.68,0,1.36,0.23,1.91,0.69c54.73,45.2,107.43,70.43,144.49,84.11
			c10.02-4.75,22.12-9.08,36.84-13.24c-10.7-2.98-24.56-7.44-40.8-14.01C582.25,75.97,529.14,48.82,474.99,0
			C421,48.54,367.9,75.69,332.67,89.97c-18.83,7.63-34.51,12.46-45.77,15.43c14.63,4.32,26.53,8.83,36.32,13.83
			C360.55,105.98,415.76,80.52,473.05,33.33z"/>
		<path class="st18" d="M270.28,109.2c0,0.03,0.01,0.06,0.01,0.09l0.03-0.1C270.31,109.2,270.3,109.2,270.28,109.2z"/>
		
			<radialGradient id="SVGID_00000058557735353205058090000018066133733069135768_" cx="474.9413" cy="383.2259" r="199.6817" gradientUnits="userSpaceOnUse">
			<stop  offset="0" style="stop-color:#FFFAD2"/>
			<stop  offset="0.0312" style="stop-color:#FDF6C9"/>
			<stop  offset="0.1992" style="stop-color:#F5E39E"/>
			<stop  offset="0.2848" style="stop-color:#F2DC8E"/>
			<stop  offset="0.6269" style="stop-color:#FFC200"/>
			<stop  offset="0.685" style="stop-color:#FCBD00;stop-opacity:0.9065"/>
			<stop  offset="0.7533" style="stop-color:#F2AF00;stop-opacity:0.7967"/>
			<stop  offset="0.8267" style="stop-color:#E39700;stop-opacity:0.6787"/>
			<stop  offset="0.9037" style="stop-color:#CD7600;stop-opacity:0.5548"/>
			<stop  offset="0.9828" style="stop-color:#B14C00;stop-opacity:0.4276"/>
			<stop  offset="1" style="stop-color:#AA4200;stop-opacity:0.4"/>
		</radialGradient>
		<path style="fill:url(#SVGID_00000058557735353205058090000018066133733069135768_);" d="M608.96,287.34
			c-15.95,34.88-35.63,66.72-58.61,94.82c-31.31,38.27-62.06,60.7-73.83,68.56c-0.5,0.34-1.09,0.51-1.67,0.51
			c-0.58,0-1.16-0.17-1.67-0.51c-11.77-7.86-42.52-30.29-73.83-68.56c-23.13-28.27-42.89-60.33-58.9-95.46
			c-7.06,0.65-13.98,0.99-20.68,0.99c0,0-0.01,0-0.01,0c-1.75,0-3.46-0.02-5.15-0.07c17.97,41.58,40.88,79.31,68.17,112.16
			c43.87,52.81,85.5,76.41,92.08,79.94c3-1.6,13.25-7.34,27.55-18.01c15.72-11.73,39.67-32,64.53-61.93
			c27.38-32.97,50.36-70.85,68.36-112.6c-4.47,0.32-9.15,0.51-14.08,0.51C617.19,287.7,613.1,287.58,608.96,287.34z"/>
	</g>
	<g class="st20">
		
			<linearGradient id="SVGID_00000028327581051401666650000016836344825228080815_" gradientUnits="userSpaceOnUse" x1="419.8683" y1="208.7352" x2="455.1112" y2="227.3541">
			<stop  offset="5.618000e-03" style="stop-color:#FFFFFF"/>
			<stop  offset="1" style="stop-color:#FFFFFF;stop-opacity:0"/>
		</linearGradient>
		<path style="fill:url(#SVGID_00000028327581051401666650000016836344825228080815_);" d="M460.49,175.07
			c0-2.72-0.08-5.42-0.22-8.08c-29.9,9.05-52.33,46.81-52.33,92.02c0,2.22,0.06,4.42,0.16,6.6
			C437.38,262.34,460.49,223.05,460.49,175.07z"/>
		
			<linearGradient id="SVGID_00000030474006459802452150000008740803801143102396_" gradientUnits="userSpaceOnUse" x1="537.8464" y1="276.75" x2="487.3094" y2="262.1209">
			<stop  offset="5.618000e-03" style="stop-color:#FFFFFF"/>
			<stop  offset="1" style="stop-color:#FFFFFF;stop-opacity:0"/>
		</linearGradient>
		<path style="fill:url(#SVGID_00000030474006459802452150000008740803801143102396_);" d="M540.3,259.01
			c0-44.86-22.08-82.37-51.63-91.8c6.6,6.29,12.36,13.43,16.89,21.46c12.47,22.15,13.22,49.54,8.14,73.95
			c-5.68,27.26-20.8,57.93-44.65,72.97c0.29,3.59,0.76,7.16,1.46,10.7c0.45,2.28,1.02,4.54,1.7,6.77c0.64,0.03,1.27,0.04,1.91,0.04
			C510.67,353.1,540.3,310.97,540.3,259.01z"/>
	</g>
</g>
</svg>
